<svg width="16" height="16" viewBox="0 0 16 16" fill="none" xmlns="http://www.w3.org/2000/svg">
<g clip-path="url(#clip0_10_20)">
<path fill-rule="evenodd" clip-rule="evenodd" d="M-0.133331 2.00001C-0.133331 1.55818 0.224841 1.20001 0.666669 1.20001H15.3333C15.7752 1.20001 16.1333 1.55818 16.1333 2.00001V5.33335C16.1333 5.77517 15.7752 6.13335 15.3333 6.13335H14.8V14C14.8 14.4418 14.4418 14.8 14 14.8H2.00001C1.55818 14.8 1.20001 14.4418 1.20001 14V6.13335H0.666669C0.224841 6.13335 -0.133331 5.77517 -0.133331 5.33335V2.00001ZM14 4.53333L14.0058 4.53335H14.5333V2.80001H1.46667V4.53335H1.99426L2.00001 4.53333L2.00577 4.53335H13.9943L14 4.53333ZM13.2 6.13335H2.80001V13.2H13.2V6.13335ZM6.66667 7.20001C6.22484 7.20001 5.86667 7.55818 5.86667 8.00001C5.86667 8.44184 6.22484 8.80001 6.66667 8.80001H9.33333C9.77516 8.80001 10.1333 8.44184 10.1333 8.00001C10.1333 7.55818 9.77516 7.20001 9.33333 7.20001H6.66667Z" />
</g>
<defs>
<clipPath id="clip0_10_20">
<rect width="16" height="16" fill="white"/>
</clipPath>
</defs>
</svg>
