<svg width="16" height="16" viewBox="0 0 16 16" fill="none" xmlns="http://www.w3.org/2000/svg">
<path fill-rule="evenodd" clip-rule="evenodd" d="M11.4667 1.33333C11.4667 0.891505 11.1085 0.533333 10.6667 0.533333C10.2248 0.533333 9.86667 0.891505 9.86667 1.33333V1.86667H6.13334V1.33333C6.13334 0.891505 5.77517 0.533333 5.33334 0.533333C4.89151 0.533333 4.53334 0.891505 4.53334 1.33333V1.86667H3.33333C2.15512 1.86667 1.2 2.82179 1.2 4V6.66667V13.3333C1.2 14.5115 2.15512 15.4667 3.33333 15.4667H12.6667C13.8449 15.4667 14.8 14.5115 14.8 13.3333V6.66667V4C14.8 2.82179 13.8449 1.86667 12.6667 1.86667H11.4667V1.33333ZM13.2 5.86667V4C13.2 3.70545 12.9612 3.46667 12.6667 3.46667H11.4667V4C11.4667 4.44183 11.1085 4.8 10.6667 4.8C10.2248 4.8 9.86667 4.44183 9.86667 4V3.46667H6.13334V4C6.13334 4.44183 5.77517 4.8 5.33334 4.8C4.89151 4.8 4.53334 4.44183 4.53334 4V3.46667H3.33333C3.03878 3.46667 2.8 3.70545 2.8 4V5.86667H13.2ZM2.8 7.46667H13.2V13.3333C13.2 13.6279 12.9612 13.8667 12.6667 13.8667H3.33333C3.03878 13.8667 2.8 13.6279 2.8 13.3333V7.46667Z"/>
</svg>
