<svg width="16" height="16" viewBox="0 0 16 16" fill="none" xmlns="http://www.w3.org/2000/svg">
<path fill-rule="evenodd" clip-rule="evenodd" d="M8.28033 0.21967C8.13968 0.0790176 7.94891 0 7.75 0C7.55109 0 7.36032 0.0790176 7.21967 0.21967C7.07902 0.360322 7 0.551088 7 0.75V3H2.75C1.784 3 1 3.784 1 4.75V8.25C1 8.71413 1.18437 9.15925 1.51256 9.48744C1.84075 9.81563 2.28587 10 2.75 10H7V15.25C7 15.4489 7.07902 15.6397 7.21967 15.7803C7.36032 15.921 7.55109 16 7.75 16C7.94891 16 8.13968 15.921 8.28033 15.7803C8.42098 15.6397 8.5 15.4489 8.5 15.25V10H12.134C12.5478 9.99993 12.9481 9.85325 13.264 9.586L15.334 7.836C15.5282 7.67172 15.6842 7.46709 15.7912 7.23636C15.8982 7.00563 15.9537 6.75434 15.9537 6.5C15.9537 6.24566 15.8982 5.99437 15.7912 5.76364C15.6842 5.53291 15.5282 5.32828 15.334 5.164L13.264 3.414C12.948 3.147 12.548 3 12.134 3H8.5V0.75C8.5 0.551088 8.42098 0.360322 8.28033 0.21967ZM12.295 8.44C12.2501 8.47839 12.1931 8.49965 12.134 8.5H7.75H2.75C2.612 8.5 2.5 8.388 2.5 8.25V4.75C2.5 4.6837 2.52634 4.62011 2.57322 4.57322C2.62011 4.52634 2.6837 4.5 2.75 4.5H12.134C12.1931 4.50035 12.2501 4.52161 12.295 4.56L14.365 6.31C14.3924 6.33347 14.4145 6.36261 14.4296 6.39541C14.4447 6.42821 14.4525 6.46389 14.4525 6.5C14.4525 6.53611 14.4447 6.57179 14.4296 6.60459C14.4145 6.63739 14.3924 6.66653 14.365 6.69L12.295 8.44Z"/>
</svg>
