<svg width="16" height="16" viewBox="0 0 16 16" fill="none" xmlns="http://www.w3.org/2000/svg">
<path fill-rule="evenodd" clip-rule="evenodd" d="M8.8 3.33333C8.8 2.8915 8.44183 2.53333 8 2.53333C7.55817 2.53333 7.2 2.8915 7.2 3.33333V7.20001H3.33333C2.89151 7.20001 2.53333 7.55818 2.53333 8.00001C2.53333 8.44184 2.89151 8.80001 3.33333 8.80001H7.2V12.6667C7.2 13.1085 7.55817 13.4667 8 13.4667C8.44183 13.4667 8.8 13.1085 8.8 12.6667V8.80001H12.6667C13.1085 8.80001 13.4667 8.44184 13.4667 8.00001C13.4667 7.55818 13.1085 7.20001 12.6667 7.20001H8.8V3.33333Z" />
</svg>
