<svg width="16" height="16" viewBox="0 0 16 16" fill="none" xmlns="http://www.w3.org/2000/svg">
<g clip-path="url(#clip0_10_29)">
<path fill-rule="evenodd" clip-rule="evenodd" d="M0.666669 1.86667C1.1085 1.86667 1.46667 2.22484 1.46667 2.66667V5.86667H4.66667C5.1085 5.86667 5.46667 6.22484 5.46667 6.66667C5.46667 7.1085 5.1085 7.46667 4.66667 7.46667H0.666669C0.224841 7.46667 -0.133331 7.1085 -0.133331 6.66667V2.66667C-0.133331 2.22484 0.224841 1.86667 0.666669 1.86667Z"/>
<path fill-rule="evenodd" clip-rule="evenodd" d="M10.5333 9.33333C10.5333 8.8915 10.8915 8.53333 11.3333 8.53333H15.3333C15.7752 8.53333 16.1333 8.8915 16.1333 9.33333V13.3333C16.1333 13.7752 15.7752 14.1333 15.3333 14.1333C14.8915 14.1333 14.5333 13.7752 14.5333 13.3333V10.1333H11.3333C10.8915 10.1333 10.5333 9.77515 10.5333 9.33333Z"/>
<path fill-rule="evenodd" clip-rule="evenodd" d="M15.9163 8.78551C16.2189 9.10749 16.2032 9.61378 15.8812 9.91633L12.7967 12.8147C11.9863 13.6224 10.9851 14.2127 9.88576 14.5306C8.78232 14.8498 7.61601 14.8843 6.49566 14.6308C5.3753 14.3773 4.33742 13.8441 3.47886 13.081C2.6203 12.3179 1.96903 11.3497 1.58584 10.2669C1.43845 9.85035 1.65662 9.39321 2.07314 9.24582C2.48965 9.09843 2.94679 9.3166 3.09419 9.73312C3.38722 10.5612 3.88524 11.3016 4.54179 11.8851C5.19834 12.4686 5.99201 12.8764 6.84875 13.0702C7.70549 13.2641 8.59738 13.2377 9.44118 12.9936C10.285 12.7496 11.0532 12.2957 11.6742 11.6745C11.6801 11.6685 11.6861 11.6627 11.6922 11.657L14.7855 8.75033C15.1075 8.44777 15.6138 8.46352 15.9163 8.78551Z"/>
<path d="M6.11426 1.46934C7.2177 1.15017 8.38401 1.11573 9.50436 1.36922C10.6247 1.62271 11.6626 2.15589 12.5212 2.91899C13.3797 3.68209 14.031 4.65024 14.4142 5.73311C14.5616 6.14963 14.3434 6.60677 13.9269 6.75416C13.5104 6.90156 13.0532 6.68339 12.9058 6.26687C12.6128 5.43879 12.1148 4.69843 11.4582 4.11489C10.8017 3.53134 10.008 3.12362 9.15127 2.92977C8.29452 2.73592 7.40264 2.76227 6.55883 3.00634C5.71502 3.25041 4.9468 3.70426 4.32583 4.32554C4.31992 4.33145 4.31392 4.33727 4.30783 4.34299L1.21449 7.24966C0.892509 7.55221 0.386222 7.53646 0.0836687 7.21448C-0.218885 6.8925 -0.203134 6.38621 0.11885 6.08366L3.20333 3.18531C4.01375 2.37756 5.01496 1.78732 6.11426 1.46934Z" />
</g>
<defs>
<clipPath id="clip0_10_29">
<rect width="16" height="16" fill="white"/>
</clipPath>
</defs>
</svg>
