<svg width="16" height="16" viewBox="0 0 16 16" fill="none" xmlns="http://www.w3.org/2000/svg">
<path fill-rule="evenodd" clip-rule="evenodd" d="M2.8 7.33335C2.8 4.82965 4.82964 2.80001 7.33333 2.80001C9.83702 2.80001 11.8667 4.82965 11.8667 7.33335C11.8667 8.55124 11.3864 9.65696 10.6049 10.4715C10.5805 10.4908 10.5569 10.5117 10.5343 10.5343C10.5117 10.5569 10.4908 10.5805 10.4715 10.6049C9.65695 11.3864 8.55123 11.8667 7.33333 11.8667C4.82964 11.8667 2.8 9.83704 2.8 7.33335ZM11.0677 12.1991C10.0335 12.9941 8.73861 13.4667 7.33333 13.4667C3.94598 13.4667 1.2 10.7207 1.2 7.33335C1.2 3.946 3.94598 1.20001 7.33333 1.20001C10.7207 1.20001 13.4667 3.946 13.4667 7.33335C13.4667 8.73862 12.9941 10.0335 12.1991 11.0677L14.5657 13.4343C14.8781 13.7467 14.8781 14.2533 14.5657 14.5657C14.2533 14.8781 13.7467 14.8781 13.4343 14.5657L11.0677 12.1991Z" fill="#14142B"/>
</svg>
