<svg width="16" height="16" viewBox="0 0 16 16" fill="none" xmlns="http://www.w3.org/2000/svg">
<path fill-rule="evenodd" clip-rule="evenodd" d="M1.2 4.00001C1.2 3.55818 1.55817 3.20001 2 3.20001H14C14.4418 3.20001 14.8 3.55818 14.8 4.00001C14.8 4.44184 14.4418 4.80001 14 4.80001H2C1.55817 4.80001 1.2 4.44184 1.2 4.00001Z" fill="#111111"/>
<path fill-rule="evenodd" clip-rule="evenodd" d="M6.66667 2.13333C6.52522 2.13333 6.38956 2.18952 6.28954 2.28953C6.18952 2.38955 6.13333 2.52521 6.13333 2.66666V3.19999H9.86667V2.66666C9.86667 2.52521 9.81048 2.38955 9.71046 2.28953C9.61044 2.18952 9.47478 2.13333 9.33333 2.13333H6.66667ZM11.4667 3.19999V2.66666C11.4667 2.10086 11.2419 1.55824 10.8418 1.15816C10.4418 0.758086 9.89913 0.533325 9.33333 0.533325H6.66667C6.10087 0.533325 5.55825 0.758086 5.15817 1.15816C4.75809 1.55824 4.53333 2.10086 4.53333 2.66666V3.19999H3.33333C2.89151 3.19999 2.53333 3.55816 2.53333 3.99999V13.3333C2.53333 13.8991 2.75809 14.4417 3.15817 14.8418C3.55825 15.2419 4.10087 15.4667 4.66667 15.4667H11.3333C11.8991 15.4667 12.4418 15.2419 12.8418 14.8418C13.2419 14.4417 13.4667 13.8991 13.4667 13.3333V3.99999C13.4667 3.55816 13.1085 3.19999 12.6667 3.19999H11.4667ZM4.13333 4.79999V13.3333C4.13333 13.4748 4.18952 13.6104 4.28954 13.7104C4.38956 13.8105 4.52522 13.8667 4.66667 13.8667H11.3333C11.4748 13.8667 11.6104 13.8105 11.7105 13.7104C11.8105 13.6104 11.8667 13.4748 11.8667 13.3333V4.79999H4.13333Z" fill="#111111"/>
<path fill-rule="evenodd" clip-rule="evenodd" d="M6.66666 6.53333C7.10849 6.53333 7.46666 6.8915 7.46666 7.33333V11.3333C7.46666 11.7752 7.10849 12.1333 6.66666 12.1333C6.22484 12.1333 5.86666 11.7752 5.86666 11.3333V7.33333C5.86666 6.8915 6.22484 6.53333 6.66666 6.53333Z" fill="#111111"/>
<path fill-rule="evenodd" clip-rule="evenodd" d="M9.33333 6.53333C9.77516 6.53333 10.1333 6.8915 10.1333 7.33333V11.3333C10.1333 11.7752 9.77516 12.1333 9.33333 12.1333C8.89151 12.1333 8.53333 11.7752 8.53333 11.3333V7.33333C8.53333 6.8915 8.89151 6.53333 9.33333 6.53333Z" fill="#111111"/>
</svg>
