<svg width="16" height="16" viewBox="0 0 16 16" fill="none" xmlns="http://www.w3.org/2000/svg">
<path fill-rule="evenodd" clip-rule="evenodd" d="M4.13442 4.13449C4.44683 3.82207 4.95337 3.82207 5.26579 4.13449L7.99999 6.8687L10.7341 4.13456C11.0465 3.82214 11.5531 3.82214 11.8655 4.13456C12.1779 4.44698 12.1779 4.95351 11.8655 5.26593L9.13136 8.00007L11.8654 10.7342C12.1779 11.0466 12.1779 11.5531 11.8654 11.8655C11.553 12.1779 11.0465 12.1779 10.7341 11.8655L7.99999 9.13144L5.26584 11.8656C4.95342 12.178 4.44688 12.178 4.13447 11.8656C3.82205 11.5532 3.82205 11.0466 4.13447 10.7342L6.86862 8.00007L4.13442 5.26586C3.822 4.95344 3.822 4.44691 4.13442 4.13449Z" />
</svg>
